<svg width="42" height="42" viewBox="0 0 42 42" fill="none" xmlns="http://www.w3.org/2000/svg">
<path d="M21 38.5C30.665 38.5 38.5 30.665 38.5 21C38.5 11.335 30.665 3.5 21 3.5C11.335 3.5 3.5 11.335 3.5 21C3.5 30.665 11.335 38.5 21 38.5Z" stroke="#213B4C" stroke-width="1.5" stroke-linecap="round" stroke-linejoin="round"/>
<path d="M29.7862 30.8846V28.688C29.7862 27.5229 29.3234 26.4055 28.4995 25.5816C27.6756 24.7578 26.5582 24.2949 25.3931 24.2949H16.6069C15.4418 24.2949 14.3244 24.7578 13.5005 25.5816C12.6766 26.4055 12.2138 27.5229 12.2138 28.688V30.8846" stroke="#213B4C" stroke-width="1.5" stroke-linecap="round" stroke-linejoin="round"/>
<path d="M21 19.9019C23.4262 19.9019 25.3931 17.9351 25.3931 15.5088C25.3931 13.0826 23.4262 11.1157 21 11.1157C18.5737 11.1157 16.6069 13.0826 16.6069 15.5088C16.6069 17.9351 18.5737 19.9019 21 19.9019Z" stroke="#213B4C" stroke-width="1.5" stroke-linecap="round" stroke-linejoin="round"/>
</svg>
